<svg width="44" height="45" viewBox="0 0 44 45" fill="none" xmlns="http://www.w3.org/2000/svg">
<ellipse cx="21.7949" cy="22.3847" rx="21.7949" ry="21.7948" fill="#2F47E3"/>
<path d="M24.5849 14.872C24.0356 14.7705 23.5312 15.121 23.4266 15.6572C23.322 16.1934 23.6737 16.7169 24.208 16.8218C25.8168 17.1354 27.059 18.3807 27.3738 19.995V19.9961C27.4635 20.4608 27.8726 20.7987 28.3437 20.7987C28.4069 20.7987 28.4701 20.7929 28.5344 20.7814C29.0688 20.6741 29.4204 20.1518 29.3158 19.6145C28.8459 17.2034 26.99 15.3413 24.5849 14.872Z" fill="white"/>
<path d="M24.5133 10.8558C24.2559 10.8189 23.9973 10.895 23.7916 11.0588C23.5802 11.2248 23.4481 11.4646 23.4193 11.7333C23.3584 12.2764 23.7503 12.7676 24.2927 12.8287C28.033 13.2461 30.9403 16.1599 31.3609 19.9119C31.4172 20.4146 31.8389 20.794 32.3422 20.794C32.3801 20.794 32.4169 20.7917 32.4548 20.7871C32.718 20.7582 32.9524 20.6279 33.1179 20.4204C33.2822 20.2128 33.3569 19.9546 33.327 19.6905C32.803 15.0091 29.1799 11.3759 24.5133 10.8558Z" fill="white"/>
<path fill-rule="evenodd" clip-rule="evenodd" d="M20.6776 23.5076C25.2804 28.1091 26.3246 22.7856 29.2552 25.7142C32.0805 28.5387 33.7044 29.1046 30.1247 32.6833C29.6763 33.0437 26.8274 37.3789 16.8155 27.3698C6.80233 17.3594 11.1351 14.5076 11.4955 14.0594C15.0839 10.4708 15.64 12.1041 18.4654 14.9287C21.396 17.8585 16.0748 18.9061 20.6776 23.5076Z" fill="white"/>
</svg>
